STARTFONT 2.1
FONT -AmsteinGraphics-DMCP-Normal-R-Normal--6-60-173-173-P-170--
SIZE 6 173 173
FONTBOUNDINGBOX 11 22 0 -4
STARTPROPERTIES 41
FAMILY_NAME "DMCP"
DEFAULT_CHAR -1
FOUNDRY "AmsteinGraphics"
COPYRIGHT "Copyright (c) 2022 SwissMicros"
CODEPAGE "MS Windows 1252 Western (ANSI)"
ENC_MODE 2
ENC_ID 1
CREATION_YEAR 2022
WEIGHT_NAME "Normal"
SLANT "R"
SETWIDTH_NAME "Normal"
SPACING "P"
WEIGHT 400
HI_VERSION 1
CP_RANGE_1 65535
CP_RANGE_2 65535
FONTNAME_REGISTRY "-"
CHARSET_REGISTRY "ISO10646"
CHARSET_ENCODING "1"
BREAK_CHAR 32
PIXEL_SIZE 14
POINT_SIZE 60
FONT_ASCENT 14
FONT_DESCENT 4
RESOLUTION_X 173
RESOLUTION_Y 173
AVERAGE_WIDTH 170
MIN_SPACE 8
NORM_SPACE 11
MAX_SPACE 16
END_SPACE 11
SUPERSCRIPT_X 6
SUPERSCRIPT_Y 6
SUBSCRIPT_X 6
SUBSCRIPT_Y 6
X_HEIGHT 10
AVG_CAPITAL_WIDTH 11
AVG_LOWERCASE_WIDTH 11
CAP_HEIGHT 14
FIGURE_WIDTH 11
SUBSCRIPT_SIZE 8
ENDPROPERTIES
CHARS 289
STARTCHAR space.uni0020
ENCODING 32
SWIDTH 578 0
DWIDTH 11 0
BBX 0 0 0 0
BITMAP
ENDCHAR
STARTCHAR exclam.uni0021
ENCODING 33
SWIDTH 578 0
DWIDTH 11 0
BBX 2 14 5 0
BITMAP
C000
C000
C000
C000
C000
C000
C000
C000
C000
C000
0000
0000
C000
C000
ENDCHAR
STARTCHAR quotedbl.uni0022
ENCODING 34
SWIDTH 578 0
DWIDTH 11 0
BBX 6 5 3 9
BITMAP
CC00
CC00
CC00
CC00
CC00
ENDCHAR
STARTCHAR numbersign.uni0023
ENCODING 35
SWIDTH 578 0
DWIDTH 11 0
BBX 10 15 1 0
BITMAP
1200
1200
1200
1200
FFC0
FFC0
1200
1200
1200
FFC0
FFC0
1200
1200
1200
1200
ENDCHAR
STARTCHAR dollar.uni0024
ENCODING 36
SWIDTH 578 0
DWIDTH 11 0
BBX 9 17 1 -3
BITMAP
0800
0800
3E00
7F00
C900
C800
C800
7800
0F00
0980
0980
8980
FF00
7E00
0800
0800
0800
ENDCHAR
STARTCHAR percent.uni0025
ENCODING 37
SWIDTH 578 0
DWIDTH 11 0
BBX 11 14 0 0
BITMAP
7800
CC00
CC00
CC00
CC00
78C0
0700
1C00
63C0
0660
0660
0660
0660
03C0
ENDCHAR
STARTCHAR ampersand.uni0026
ENCODING 38
SWIDTH 578 0
DWIDTH 11 0
BBX 10 14 1 0
BITMAP
1F00
3F00
3000
3000
3000
1800
3C00
6CC0
C6C0
C7C0
C380
E300
7D80
3DC0
ENDCHAR
STARTCHAR quotesingle.uni0027
ENCODING 39
SWIDTH 578 0
DWIDTH 11 0
BBX 2 5 5 9
BITMAP
C000
C000
C000
C000
C000
ENDCHAR
STARTCHAR parenleft.uni0028
ENCODING 40
SWIDTH 578 0
DWIDTH 11 0
BBX 4 17 4 -3
BITMAP
3000
2000
6000
6000
4000
C000
C000
C000
C000
C000
C000
C000
4000
6000
6000
2000
3000
ENDCHAR
STARTCHAR parenright.uni0029
ENCODING 41
SWIDTH 578 0
DWIDTH 11 0
BBX 4 17 3 -3
BITMAP
C000
4000
6000
6000
2000
3000
3000
3000
3000
3000
3000
3000
2000
6000
6000
4000
C000
ENDCHAR
STARTCHAR asterisk.uni002A
ENCODING 42
SWIDTH 578 0
DWIDTH 11 0
BBX 7 8 2 6
BITMAP
1000
9200
5400
3800
3800
5400
9200
1000
ENDCHAR
STARTCHAR plus.uni002B
ENCODING 43
SWIDTH 578 0
DWIDTH 11 0
BBX 10 10 1 1
BITMAP
0C00
0C00
0C00
0C00
FFC0
FFC0
0C00
0C00
0C00
0C00
ENDCHAR
STARTCHAR comma.uni002C
ENCODING 44
SWIDTH 578 0
DWIDTH 11 0
BBX 3 5 3 -2
BITMAP
6000
6000
6000
C000
8000
ENDCHAR
STARTCHAR hyphen.uni002D
ENCODING 45
SWIDTH 578 0
DWIDTH 11 0
BBX 5 2 3 4
BITMAP
F800
F800
ENDCHAR
STARTCHAR period.uni002E
ENCODING 46
SWIDTH 578 0
DWIDTH 11 0
BBX 2 3 4 0
BITMAP
C000
C000
C000
ENDCHAR
STARTCHAR slash.uni002F
ENCODING 47
SWIDTH 578 0
DWIDTH 11 0
BBX 9 16 1 -2
BITMAP
0180
0180
0300
0300
0600
0600
0C00
0C00
1800
1800
3000
3000
6000
6000
C000
C000
ENDCHAR
STARTCHAR zero.uni0030
ENCODING 48
SWIDTH 578 0
DWIDTH 11 0
BBX 9 14 1 0
BITMAP
3E00
7F00
6300
C180
C380
C780
CD80
D980
F180
E180
C180
6300
7F00
3E00
ENDCHAR
STARTCHAR one.uni0031
ENCODING 49
SWIDTH 578 0
DWIDTH 11 0
BBX 8 14 2 0
BITMAP
3800
F800
D800
1800
1800
1800
1800
1800
1800
1800
1800
1800
FF00
FF00
ENDCHAR
STARTCHAR two.uni0032
ENCODING 50
SWIDTH 578 0
DWIDTH 11 0
BBX 9 14 1 0
BITMAP
7E00
FF00
8380
0180
0180
0180
0380
0700
0E00
1C00
3800
7000
FF80
FF80
ENDCHAR
STARTCHAR three.uni0033
ENCODING 51
SWIDTH 578 0
DWIDTH 11 0
BBX 9 14 1 0
BITMAP
7E00
FF00
8380
0180
0180
0300
3E00
3F00
0380
0180
0180
8380
FF00
7E00
ENDCHAR
STARTCHAR four.uni0034
ENCODING 52
SWIDTH 578 0
DWIDTH 11 0
BBX 9 14 1 0
BITMAP
0E00
0E00
1E00
1600
3600
2600
6600
4600
C600
FF80
FF80
0600
0600
0600
ENDCHAR
STARTCHAR five.uni0035
ENCODING 53
SWIDTH 578 0
DWIDTH 11 0
BBX 9 14 1 0
BITMAP
7F00
7F00
6000
6000
6000
7E00
7F00
4380
0180
0180
0180
8380
FF00
7E00
ENDCHAR
STARTCHAR six.uni0036
ENCODING 54
SWIDTH 578 0
DWIDTH 11 0
BBX 9 14 1 0
BITMAP
1E00
3F00
6100
6000
C000
DE00
FF00
E380
C180
C180
C180
6380
7F00
3E00
ENDCHAR
STARTCHAR seven.uni0037
ENCODING 55
SWIDTH 578 0
DWIDTH 11 0
BBX 9 14 1 0
BITMAP
FF80
FF80
0300
0300
0300
0600
0600
0600
0C00
0C00
0C00
1800
1800
1800
ENDCHAR
STARTCHAR eight.uni0038
ENCODING 56
SWIDTH 578 0
DWIDTH 11 0
BBX 9 14 1 0
BITMAP
3E00
7F00
E380
C180
C180
6300
3E00
7F00
E380
C180
C180
E380
7F00
3E00
ENDCHAR
STARTCHAR nine.uni0039
ENCODING 57
SWIDTH 578 0
DWIDTH 11 0
BBX 9 14 1 0
BITMAP
3E00
7F00
E300
C180
C180
C180
E380
7F80
3D80
0180
0300
4300
7E00
3C00
ENDCHAR
STARTCHAR colon.uni003A
ENCODING 58
SWIDTH 578 0
DWIDTH 11 0
BBX 2 10 4 0
BITMAP
C000
C000
C000
0000
0000
0000
0000
C000
C000
C000
ENDCHAR
STARTCHAR semicolon.uni003B
ENCODING 59
SWIDTH 578 0
DWIDTH 11 0
BBX 3 12 3 -2
BITMAP
6000
6000
6000
0000
0000
0000
0000
6000
6000
6000
C000
8000
ENDCHAR
STARTCHAR less.uni003C
ENCODING 60
SWIDTH 578 0
DWIDTH 11 0
BBX 9 9 1 2
BITMAP
0180
0700
1C00
7000
C000
7000
1C00
0700
0180
ENDCHAR
STARTCHAR equal.uni003D
ENCODING 61
SWIDTH 578 0
DWIDTH 11 0
BBX 9 6 1 3
BITMAP
FF80
FF80
0000
0000
FF80
FF80
ENDCHAR
STARTCHAR greater.uni003E
ENCODING 62
SWIDTH 578 0
DWIDTH 11 0
BBX 9 9 1 2
BITMAP
C000
7000
1C00
0700
0180
0700
1C00
7000
C000
ENDCHAR
STARTCHAR question.uni003F
ENCODING 63
SWIDTH 578 0
DWIDTH 11 0
BBX 7 14 2 0
BITMAP
7C00
FE00
8600
0600
0E00
0C00
1800
3800
3000
3000
3000
0000
3000
3000
ENDCHAR
STARTCHAR at.uni0040
ENCODING 64
SWIDTH 578 0
DWIDTH 11 0
BBX 9 16 1 -3
BITMAP
1E00
3F00
6180
6180
C780
CD80
CD80
CD80
CD80
CD80
CD80
C780
6000
6000
3E00
1E00
ENDCHAR
STARTCHAR A.uni0041
ENCODING 65
SWIDTH 578 0
DWIDTH 11 0
BBX 9 14 1 0
BITMAP
1C00
1C00
1C00
1400
3600
3600
3600
2200
6300
7F00
7F00
6300
C180
C180
ENDCHAR
STARTCHAR B.uni0042
ENCODING 66
SWIDTH 578 0
DWIDTH 11 0
BBX 9 14 1 0
BITMAP
FE00
FF00
C380
C180
C180
C380
FF00
FF00
C380
C180
C180
C380
FF00
FE00
ENDCHAR
STARTCHAR C.uni0043
ENCODING 67
SWIDTH 578 0
DWIDTH 11 0
BBX 9 14 1 0
BITMAP
1F00
3F80
7080
6000
C000
C000
C000
C000
C000
C000
6000
7080
3F80
1F00
ENDCHAR
STARTCHAR D.uni0044
ENCODING 68
SWIDTH 578 0
DWIDTH 11 0
BBX 9 14 1 0
BITMAP
FC00
FE00
C700
C300
C180
C180
C180
C180
C180
C180
C300
C700
FE00
FC00
ENDCHAR
STARTCHAR E.uni0045
ENCODING 69
SWIDTH 578 0
DWIDTH 11 0
BBX 9 14 1 0
BITMAP
FF80
FF80
C000
C000
C000
C000
FF00
FF00
C000
C000
C000
C000
FF80
FF80
ENDCHAR
STARTCHAR F.uni0046
ENCODING 70
SWIDTH 578 0
DWIDTH 11 0
BBX 9 14 1 0
BITMAP
FF80
FF80
C000
C000
C000
C000
FF00
FF00
C000
C000
C000
C000
C000
C000
ENDCHAR
STARTCHAR G.uni0047
ENCODING 71
SWIDTH 578 0
DWIDTH 11 0
BBX 9 14 1 0
BITMAP
1F00
3F80
7080
6000
C000
C000
C780
C780
C180
C180
6180
7180
3F80
1F00
ENDCHAR
STARTCHAR H.uni0048
ENCODING 72
SWIDTH 578 0
DWIDTH 11 0
BBX 9 14 1 0
BITMAP
C180
C180
C180
C180
C180
C180
FF80
FF80
C180
C180
C180
C180
C180
C180
ENDCHAR
STARTCHAR I.uni0049
ENCODING 73
SWIDTH 578 0
DWIDTH 11 0
BBX 8 14 2 0
BITMAP
FF00
FF00
1800
1800
1800
1800
1800
1800
1800
1800
1800
1800
FF00
FF00
ENDCHAR
STARTCHAR J.uni004A
ENCODING 74
SWIDTH 578 0
DWIDTH 11 0
BBX 7 14 1 0
BITMAP
3E00
3E00
0600
0600
0600
0600
0600
0600
0600
0600
0600
8E00
FC00
7800
ENDCHAR
STARTCHAR K.uni004B
ENCODING 75
SWIDTH 578 0
DWIDTH 11 0
BBX 9 14 1 0
BITMAP
C380
C300
C600
CC00
CC00
D800
F800
FC00
CC00
C600
C700
C300
C380
C180
ENDCHAR
STARTCHAR L.uni004C
ENCODING 76
SWIDTH 578 0
DWIDTH 11 0
BBX 9 14 1 0
BITMAP
C000
C000
C000
C000
C000
C000
C000
C000
C000
C000
C000
C000
FF80
FF80
ENDCHAR
STARTCHAR M.uni004D
ENCODING 77
SWIDTH 578 0
DWIDTH 11 0
BBX 9 14 1 0
BITMAP
C180
C180
E380
E380
F780
D580
DD80
DD80
C980
C980
C180
C180
C180
C180
ENDCHAR
STARTCHAR N.uni004E
ENCODING 78
SWIDTH 578 0
DWIDTH 11 0
BBX 9 14 1 0
BITMAP
E180
E180
E180
F180
D180
D980
C980
C980
CD80
C580
C780
C380
C380
C380
ENDCHAR
STARTCHAR O.uni004F
ENCODING 79
SWIDTH 578 0
DWIDTH 11 0
BBX 9 14 1 0
BITMAP
3E00
7F00
6300
C180
C180
C180
C180
C180
C180
C180
C180
6300
7F00
3E00
ENDCHAR
STARTCHAR P.uni0050
ENCODING 80
SWIDTH 578 0
DWIDTH 11 0
BBX 9 14 1 0
BITMAP
FE00
FF00
C380
C180
C180
C380
FF00
FE00
C000
C000
C000
C000
C000
C000
ENDCHAR
STARTCHAR Q.uni0051
ENCODING 81
SWIDTH 578 0
DWIDTH 11 0
BBX 9 17 1 -3
BITMAP
3E00
7F00
6300
C180
C180
C180
C180
C180
C180
C180
C180
6300
7F00
3E00
0700
0380
0100
ENDCHAR
STARTCHAR R.uni0052
ENCODING 82
SWIDTH 578 0
DWIDTH 11 0
BBX 10 14 1 0
BITMAP
FE00
FF00
C380
C180
C180
C380
FF00
FE00
C700
C300
C180
C180
C0C0
C0C0
ENDCHAR
STARTCHAR S.uni0053
ENCODING 83
SWIDTH 578 0
DWIDTH 11 0
BBX 9 14 1 0
BITMAP
3E00
7F00
E100
C000
C000
F000
7E00
1F00
0380
0180
0180
8380
FF00
7E00
ENDCHAR
STARTCHAR T.uni0054
ENCODING 84
SWIDTH 578 0
DWIDTH 11 0
BBX 10 14 1 0
BITMAP
FFC0
FFC0
0C00
0C00
0C00
0C00
0C00
0C00
0C00
0C00
0C00
0C00
0C00
0C00
ENDCHAR
STARTCHAR U.uni0055
ENCODING 85
SWIDTH 578 0
DWIDTH 11 0
BBX 9 14 1 0
BITMAP
C180
C180
C180
C180
C180
C180
C180
C180
C180
C180
C180
6300
7F00
3E00
ENDCHAR
STARTCHAR V.uni0056
ENCODING 86
SWIDTH 578 0
DWIDTH 11 0
BBX 9 14 1 0
BITMAP
C180
C180
6300
6300
6300
6300
3600
3600
3600
3600
1400
1C00
1C00
1C00
ENDCHAR
STARTCHAR W.uni0057
ENCODING 87
SWIDTH 578 0
DWIDTH 11 0
BBX 11 14 0 0
BITMAP
C060
C060
C060
E0E0
6EC0
6EC0
6AC0
6AC0
6AC0
7BC0
71C0
3180
3180
3180
ENDCHAR
STARTCHAR X.uni0058
ENCODING 88
SWIDTH 578 0
DWIDTH 11 0
BBX 9 14 1 0
BITMAP
E380
6300
6300
3600
3600
1C00
0800
1C00
3600
3600
6300
6300
C180
C180
ENDCHAR
STARTCHAR Y.uni0059
ENCODING 89
SWIDTH 578 0
DWIDTH 11 0
BBX 10 14 1 0
BITMAP
E1C0
6180
7380
3300
3300
1E00
1E00
0C00
0C00
0C00
0C00
0C00
0C00
0C00
ENDCHAR
STARTCHAR Z.uni005A
ENCODING 90
SWIDTH 578 0
DWIDTH 11 0
BBX 9 14 1 0
BITMAP
FF80
FF80
0300
0700
0600
0E00
0C00
1800
3800
3000
7000
6000
FF80
FF80
ENDCHAR
STARTCHAR bracketleft.uni005B
ENCODING 91
SWIDTH 578 0
DWIDTH 11 0
BBX 4 17 4 -3
BITMAP
F000
F000
C000
C000
C000
C000
C000
C000
C000
C000
C000
C000
C000
C000
C000
F000
F000
ENDCHAR
STARTCHAR backslash.uni005C
ENCODING 92
SWIDTH 578 0
DWIDTH 11 0
BBX 9 16 1 -2
BITMAP
C000
C000
6000
6000
3000
3000
1800
1800
0C00
0C00
0600
0600
0300
0300
0180
0180
ENDCHAR
STARTCHAR bracketright.uni005D
ENCODING 93
SWIDTH 578 0
DWIDTH 11 0
BBX 4 17 3 -3
BITMAP
F000
F000
3000
3000
3000
3000
3000
3000
3000
3000
3000
3000
3000
3000
3000
F000
F000
ENDCHAR
STARTCHAR asciicircum.uni005E
ENCODING 94
SWIDTH 578 0
DWIDTH 11 0
BBX 10 5 1 9
BITMAP
0C00
1E00
3300
6180
C0C0
ENDCHAR
STARTCHAR underscore.uni005F
ENCODING 95
SWIDTH 578 0
DWIDTH 11 0
BBX 9 2 0 -3
BITMAP
FF80
FF80
ENDCHAR
STARTCHAR grave.uni0060
ENCODING 96
SWIDTH 578 0
DWIDTH 11 0
BBX 4 4 2 11
BITMAP
E000
6000
3000
1000
ENDCHAR
STARTCHAR a.uni0061
ENCODING 97
SWIDTH 578 0
DWIDTH 11 0
BBX 9 10 1 0
BITMAP
3E00
7F00
4180
0180
3F80
FF80
C180
C380
FF80
3D80
ENDCHAR
STARTCHAR b.uni0062
ENCODING 98
SWIDTH 578 0
DWIDTH 11 0
BBX 9 14 1 0
BITMAP
C000
C000
C000
C000
DE00
FF00
E380
C180
C180
C180
C180
E380
FF00
DE00
ENDCHAR
STARTCHAR c.uni0063
ENCODING 99
SWIDTH 578 0
DWIDTH 11 0
BBX 8 10 1 0
BITMAP
1E00
7F00
6100
C000
C000
C000
C000
6100
7F00
1E00
ENDCHAR
STARTCHAR d.uni0064
ENCODING 100
SWIDTH 578 0
DWIDTH 11 0
BBX 9 14 1 0
BITMAP
0180
0180
0180
0180
3D80
7F80
E380
C180
C180
C180
C180
E380
7F80
3D80
ENDCHAR
STARTCHAR e.uni0065
ENCODING 101
SWIDTH 578 0
DWIDTH 11 0
BBX 9 10 1 0
BITMAP
3E00
7F00
6380
C180
FF80
FF80
C000
6080
7F80
1F00
ENDCHAR
STARTCHAR f.uni0066
ENCODING 102
SWIDTH 578 0
DWIDTH 11 0
BBX 8 14 1 0
BITMAP
0F00
1F00
1800
1800
FF00
FF00
1800
1800
1800
1800
1800
1800
7F00
7F00
ENDCHAR
STARTCHAR g.uni0067
ENCODING 103
SWIDTH 578 0
DWIDTH 11 0
BBX 9 14 1 -4
BITMAP
3D80
7F80
E380
C180
C180
C180
C180
E380
7F80
3D80
0180
4380
7F00
3E00
ENDCHAR
STARTCHAR h.uni0068
ENCODING 104
SWIDTH 578 0
DWIDTH 11 0
BBX 9 14 1 0
BITMAP
C000
C000
C000
C000
DE00
FF00
E380
C180
C180
C180
C180
C180
C180
C180
ENDCHAR
STARTCHAR i.uni0069
ENCODING 105
SWIDTH 578 0
DWIDTH 11 0
BBX 8 14 2 0
BITMAP
1800
1800
0000
0000
F800
F800
1800
1800
1800
1800
1800
1800
FF00
FF00
ENDCHAR
STARTCHAR j.uni006A
ENCODING 106
SWIDTH 578 0
DWIDTH 11 0
BBX 6 18 1 -4
BITMAP
0C00
0C00
0000
0000
7C00
7C00
0C00
0C00
0C00
0C00
0C00
0C00
0C00
0C00
0C00
1C00
F800
F000
ENDCHAR
STARTCHAR k.uni006B
ENCODING 107
SWIDTH 578 0
DWIDTH 11 0
BBX 9 14 1 0
BITMAP
C000
C000
C000
C000
C380
C700
CE00
DC00
F800
FC00
CE00
C600
C700
C380
ENDCHAR
STARTCHAR l.uni006C
ENCODING 108
SWIDTH 578 0
DWIDTH 11 0
BBX 8 14 1 0
BITMAP
F800
F800
1800
1800
1800
1800
1800
1800
1800
1800
1800
1800
1F00
0F00
ENDCHAR
STARTCHAR m.uni006D
ENCODING 109
SWIDTH 578 0
DWIDTH 11 0
BBX 10 10 1 0
BITMAP
DB80
FFC0
CCC0
CCC0
CCC0
CCC0
CCC0
CCC0
CCC0
CCC0
ENDCHAR
STARTCHAR n.uni006E
ENCODING 110
SWIDTH 578 0
DWIDTH 11 0
BBX 9 10 1 0
BITMAP
CE00
FF00
E380
C180
C180
C180
C180
C180
C180
C180
ENDCHAR
STARTCHAR o.uni006F
ENCODING 111
SWIDTH 578 0
DWIDTH 11 0
BBX 9 10 1 0
BITMAP
3E00
7F00
E380
C180
C180
C180
C180
E380
7F00
3E00
ENDCHAR
STARTCHAR p.uni0070
ENCODING 112
SWIDTH 578 0
DWIDTH 11 0
BBX 9 14 1 -4
BITMAP
DE00
FF00
E380
C180
C180
C180
C180
E380
FF00
DE00
C000
C000
C000
C000
ENDCHAR
STARTCHAR q.uni0071
ENCODING 113
SWIDTH 578 0
DWIDTH 11 0
BBX 9 14 1 -4
BITMAP
3D80
7F80
E380
C180
C180
C180
C180
E380
7F80
3D80
0180
0180
0180
0180
ENDCHAR
STARTCHAR r.uni0072
ENCODING 114
SWIDTH 578 0
DWIDTH 11 0
BBX 9 10 1 0
BITMAP
F700
F780
3880
3000
3000
3000
3000
3000
FE00
FE00
ENDCHAR
STARTCHAR s.uni0073
ENCODING 115
SWIDTH 578 0
DWIDTH 11 0
BBX 9 10 1 0
BITMAP
3F00
FF80
C080
F800
7F00
0780
0180
8180
FF80
7E00
ENDCHAR
STARTCHAR t.uni0074
ENCODING 116
SWIDTH 578 0
DWIDTH 11 0
BBX 9 13 1 0
BITMAP
1800
1800
1800
FF80
FF80
1800
1800
1800
1800
1800
1800
1F80
0F80
ENDCHAR
STARTCHAR u.uni0075
ENCODING 117
SWIDTH 578 0
DWIDTH 11 0
BBX 9 10 1 0
BITMAP
C180
C180
C180
C180
C180
C180
C180
E380
7F80
3980
ENDCHAR
STARTCHAR v.uni0076
ENCODING 118
SWIDTH 578 0
DWIDTH 11 0
BBX 9 10 1 0
BITMAP
C180
6300
6300
6300
3600
3600
3600
1400
1C00
1C00
ENDCHAR
STARTCHAR w.uni0077
ENCODING 119
SWIDTH 578 0
DWIDTH 11 0
BBX 11 10 0 0
BITMAP
C060
C060
60C0
64C0
6EC0
6AC0
3B80
3B80
3180
3180
ENDCHAR
STARTCHAR x.uni0078
ENCODING 120
SWIDTH 578 0
DWIDTH 11 0
BBX 9 10 1 0
BITMAP
E380
6300
3600
3E00
1C00
1C00
3E00
3600
6300
E380
ENDCHAR
STARTCHAR y.uni0079
ENCODING 121
SWIDTH 578 0
DWIDTH 11 0
BBX 9 14 1 -4
BITMAP
C180
6300
6300
6300
3600
3600
3E00
1C00
0C00
1C00
1800
1800
7800
7000
ENDCHAR
STARTCHAR z.uni007A
ENCODING 122
SWIDTH 578 0
DWIDTH 11 0
BBX 9 10 1 0
BITMAP
FF80
FF80
0300
0600
0C00
1800
3000
6000
FF80
FF80
ENDCHAR
STARTCHAR braceleft.uni007B
ENCODING 123
SWIDTH 578 0
DWIDTH 11 0
BBX 8 18 2 -4
BITMAP
0F00
1F00
1800
1800
1800
1800
1800
3000
E000
3000
1800
1800
1800
1800
1800
1800
1F00
0F00
ENDCHAR
STARTCHAR bar.uni007C
ENCODING 124
SWIDTH 578 0
DWIDTH 11 0
BBX 2 18 5 -4
BITMAP
C000
C000
C000
C000
C000
C000
C000
C000
C000
C000
C000
C000
C000
C000
C000
C000
C000
C000
ENDCHAR
STARTCHAR braceright.uni007D
ENCODING 125
SWIDTH 578 0
DWIDTH 11 0
BBX 8 18 2 -4
BITMAP
F000
F800
1800
1800
1800
1800
1800
0C00
0700
0C00
1800
1800
1800
1800
1800
1800
F800
F000
ENDCHAR
STARTCHAR asciitilde.uni007E
ENCODING 126
SWIDTH 578 0
DWIDTH 11 0
BBX 9 3 1 5
BITMAP
7880
FF80
8700
ENDCHAR
STARTCHAR nbsp.uni00A0
ENCODING 160
SWIDTH 578 0
DWIDTH 11 0
BBX 0 0 0 0
BITMAP
ENDCHAR
STARTCHAR exclamdown.uni00A1
ENCODING 161
SWIDTH 578 0
DWIDTH 11 0
BBX 2 14 5 0
BITMAP
C000
C000
0000
0000
C000
C000
C000
C000
C000
C000
C000
C000
C000
C000
ENDCHAR
STARTCHAR cent.uni00A2
ENCODING 162
SWIDTH 578 0
DWIDTH 11 0
BBX 7 16 1 -3
BITMAP
0800
0800
0800
3C00
7E00
EA00
C800
C800
C800
C800
EA00
7E00
3C00
0800
0800
0800
ENDCHAR
STARTCHAR sterling.uni00A3
ENCODING 163
SWIDTH 578 0
DWIDTH 11 0
BBX 9 14 1 0
BITMAP
0F00
1F80
3880
3000
3000
3000
FE00
FE00
3000
3000
3000
3000
FF80
FF80
ENDCHAR
STARTCHAR currency.uni00A4
ENCODING 164
SWIDTH 578 0
DWIDTH 11 0
BBX 8 8 2 2
BITMAP
8100
5A00
2400
4200
4200
2400
5A00
8100
ENDCHAR
STARTCHAR yen.uni00A5
ENCODING 165
SWIDTH 578 0
DWIDTH 11 0
BBX 10 14 1 0
BITMAP
E1C0
6180
7380
3300
3300
FFC0
1E00
0C00
FFC0
0C00
0C00
0C00
0C00
0C00
ENDCHAR
STARTCHAR brokenbar.uni00A6
ENCODING 166
SWIDTH 578 0
DWIDTH 11 0
BBX 2 16 5 -3
BITMAP
C000
C000
C000
C000
C000
C000
C000
0000
0000
C000
C000
C000
C000
C000
C000
C000
ENDCHAR
STARTCHAR section.uni00A7
ENCODING 167
SWIDTH 578 0
DWIDTH 11 0
BBX 7 16 2 -2
BITMAP
3C00
7C00
6000
6000
2000
7800
CC00
C600
C600
6600
3C00
0800
0C00
0C00
7C00
7800
ENDCHAR
STARTCHAR dieresis.uni00A8
ENCODING 168
SWIDTH 578 0
DWIDTH 11 0
BBX 6 2 3 12
BITMAP
CC00
CC00
ENDCHAR
STARTCHAR copyright.uni00A9
ENCODING 169
SWIDTH 578 0
DWIDTH 11 0
BBX 11 11 0 2
BITMAP
1F00
2080
4E40
9120
A020
A020
A020
9120
4E40
2080
1F00
ENDCHAR
STARTCHAR ordfeminine.uni00AA
ENCODING 170
SWIDTH 578 0
DWIDTH 11 0
BBX 7 10 2 4
BITMAP
7C00
0600
0200
7E00
C200
8200
C600
7A00
0000
FE00
ENDCHAR
STARTCHAR guillemotleft.uni00AB
ENCODING 171
SWIDTH 578 0
DWIDTH 11 0
BBX 9 7 1 2
BITMAP
1980
3300
6600
CC00
6600
3300
1980
ENDCHAR
STARTCHAR logicalnot.uni00AC
ENCODING 172
SWIDTH 578 0
DWIDTH 11 0
BBX 9 5 1 3
BITMAP
FF80
FF80
0180
0180
0180
ENDCHAR
STARTCHAR hyphensoft.uni00AD
ENCODING 173
SWIDTH 578 0
DWIDTH 11 0
BBX 5 2 3 4
BITMAP
F800
F800
ENDCHAR
STARTCHAR registered.uni00AE
ENCODING 174
SWIDTH 578 0
DWIDTH 11 0
BBX 11 11 0 2
BITMAP
1F00
2080
5E40
9120
9120
9E20
9220
9120
50C0
2080
1F00
ENDCHAR
STARTCHAR macron.uni00AF
ENCODING 175
SWIDTH 578 0
DWIDTH 11 0
BBX 5 2 3 12
BITMAP
F800
F800
ENDCHAR
STARTCHAR degree.uni00B0
ENCODING 176
SWIDTH 578 0
DWIDTH 11 0
BBX 8 8 2 7
BITMAP
3C00
7E00
E700
C300
C300
E700
7E00
3C00
ENDCHAR
STARTCHAR plusminus.uni00B1
ENCODING 177
SWIDTH 578 0
DWIDTH 11 0
BBX 10 11 1 0
BITMAP
0C00
0C00
0C00
FFC0
FFC0
0C00
0C00
0C00
0000
FFC0
FFC0
ENDCHAR
STARTCHAR twosuperior.uni00B2
ENCODING 178
SWIDTH 578 0
DWIDTH 11 0
BBX 5 8 3 6
BITMAP
7000
8800
0800
0800
1000
2000
4000
F800
ENDCHAR
STARTCHAR threesuperior.uni00B3
ENCODING 179
SWIDTH 578 0
DWIDTH 11 0
BBX 5 8 3 6
BITMAP
7000
8800
0800
7000
0800
0800
8800
7000
ENDCHAR
STARTCHAR acute.uni00B4
ENCODING 180
SWIDTH 578 0
DWIDTH 11 0
BBX 4 4 4 11
BITMAP
7000
6000
C000
8000
ENDCHAR
STARTCHAR micro.uni00B5
ENCODING 181
SWIDTH 578 0
DWIDTH 11 0
BBX 10 14 1 -4
BITMAP
C180
C180
C180
C180
C180
C180
C180
E380
FFC0
DCC0
C000
C000
C000
C000
ENDCHAR
STARTCHAR paragraph.uni00B6
ENCODING 182
SWIDTH 578 0
DWIDTH 11 0
BBX 9 16 1 -2
BITMAP
3F80
7C80
FC80
FC80
FC80
FC80
7C80
1C80
0480
0480
0480
0480
0480
0480
0480
0480
ENDCHAR
STARTCHAR periodcentered.uni00B7
ENCODING 183
SWIDTH 578 0
DWIDTH 11 0
BBX 2 3 4 5
BITMAP
C000
C000
C000
ENDCHAR
STARTCHAR cedilla.uni00B8
ENCODING 184
SWIDTH 578 0
DWIDTH 11 0
BBX 4 4 3 -4
BITMAP
2000
3000
3000
E000
ENDCHAR
STARTCHAR onesuperior.uni00B9
ENCODING 185
SWIDTH 578 0
DWIDTH 11 0
BBX 5 8 3 6
BITMAP
E000
2000
2000
2000
2000
2000
2000
F800
ENDCHAR
STARTCHAR ordmasculine.uni00BA
ENCODING 186
SWIDTH 578 0
DWIDTH 11 0
BBX 7 10 2 4
BITMAP
3800
4400
8200
8200
8200
8200
4400
3800
0000
FE00
ENDCHAR
STARTCHAR guillemotright.uni00BB
ENCODING 187
SWIDTH 578 0
DWIDTH 11 0
BBX 9 7 1 2
BITMAP
CC00
6600
3300
1980
3300
6600
CC00
ENDCHAR
STARTCHAR onequarter.uni00BC
ENCODING 188
SWIDTH 578 0
DWIDTH 11 0
BBX 10 18 1 -3
BITMAP
E000
2000
2000
2000
2000
2000
2000
F8C0
0700
3800
C100
0300
0500
0900
1100
1F80
0100
0100
ENDCHAR
STARTCHAR onehalf.uni00BD
ENCODING 189
SWIDTH 578 0
DWIDTH 11 0
BBX 10 18 1 -3
BITMAP
E000
2000
2000
2000
2000
2000
2000
F8C0
0700
3800
C700
0880
0080
0080
0100
0200
0400
0F80
ENDCHAR
STARTCHAR threequarters.uni00BE
ENCODING 190
SWIDTH 578 0
DWIDTH 11 0
BBX 10 18 1 -3
BITMAP
7000
8800
0800
7000
0800
0800
8800
70C0
0700
3800
C100
0300
0500
0900
1100
1F80
0100
0100
ENDCHAR
STARTCHAR questiondown.uni00BF
ENCODING 191
SWIDTH 578 0
DWIDTH 11 0
BBX 7 14 2 0
BITMAP
1800
1800
0000
1800
1800
1800
3800
3000
6000
E000
C000
C200
FE00
7C00
ENDCHAR
STARTCHAR Agrave.uni00C0
ENCODING 192
SWIDTH 578 0
DWIDTH 11 0
BBX 9 18 1 0
BITMAP
3000
1800
0400
0000
1C00
1C00
1C00
1400
3600
3600
3600
2200
6300
7F00
7F00
6300
C180
C180
ENDCHAR
STARTCHAR Aacute.uni00C1
ENCODING 193
SWIDTH 578 0
DWIDTH 11 0
BBX 9 18 1 0
BITMAP
0600
0C00
1000
0000
1C00
1C00
1C00
1400
3600
3600
3600
2200
6300
7F00
7F00
6300
C180
C180
ENDCHAR
STARTCHAR Acircumflex.uni00C2
ENCODING 194
SWIDTH 578 0
DWIDTH 11 0
BBX 9 18 1 0
BITMAP
0800
1C00
3600
0000
1C00
1C00
1C00
1400
3600
3600
3600
2200
6300
7F00
7F00
6300
C180
C180
ENDCHAR
STARTCHAR Atilde.uni00C3
ENCODING 195
SWIDTH 578 0
DWIDTH 11 0
BBX 9 17 1 0
BITMAP
1900
2600
0000
1C00
1C00
1C00
1400
3600
3600
3600
2200
6300
7F00
7F00
6300
C180
C180
ENDCHAR
STARTCHAR Adieresis.uni00C4
ENCODING 196
SWIDTH 578 0
DWIDTH 11 0
BBX 9 17 1 0
BITMAP
6300
6300
0000
1C00
1C00
1C00
1400
3600
3600
3600
2200
6300
7F00
7F00
6300
C180
C180
ENDCHAR
STARTCHAR Aring.uni00C5
ENCODING 197
SWIDTH 578 0
DWIDTH 11 0
BBX 9 18 1 0
BITMAP
1C00
2200
2200
2200
1C00
1C00
1C00
1400
3600
3600
3600
2200
6300
7F00
7F00
6300
C180
C180
ENDCHAR
STARTCHAR AE.uni00C6
ENCODING 198
SWIDTH 578 0
DWIDTH 11 0
BBX 11 14 0 0
BITMAP
0FE0
1FE0
1B00
1B00
1B00
3300
33E0
33E0
3300
7F00
7F00
6300
C3E0
C3E0
ENDCHAR
STARTCHAR Ccedilla.uni00C7
ENCODING 199
SWIDTH 578 0
DWIDTH 11 0
BBX 9 18 1 -4
BITMAP
1F00
3F80
7080
6000
C000
C000
C000
C000
C000
C000
6000
7080
3F80
1F00
0400
0600
0600
1C00
ENDCHAR
STARTCHAR Egrave.uni00C8
ENCODING 200
SWIDTH 578 0
DWIDTH 11 0
BBX 9 18 1 0
BITMAP
3000
1800
0400
0000
FF80
FF80
C000
C000
C000
C000
FF80
FF80
C000
C000
C000
C000
FF80
FF80
ENDCHAR
STARTCHAR Eacute.uni00C9
ENCODING 201
SWIDTH 578 0
DWIDTH 11 0
BBX 9 18 1 0
BITMAP
0600
0C00
1000
0000
FF80
FF80
C000
C000
C000
C000
FF80
FF80
C000
C000
C000
C000
FF80
FF80
ENDCHAR
STARTCHAR Ecircumflex.uni00CA
ENCODING 202
SWIDTH 578 0
DWIDTH 11 0
BBX 9 18 1 0
BITMAP
0800
1C00
3600
0000
FF80
FF80
C000
C000
C000
C000
FF80
FF80
C000
C000
C000
C000
FF80
FF80
ENDCHAR
STARTCHAR Edieresis.uni00CB
ENCODING 203
SWIDTH 578 0
DWIDTH 11 0
BBX 9 17 1 0
BITMAP
6300
6300
0000
FF80
FF80
C000
C000
C000
C000
FF80
FF80
C000
C000
C000
C000
FF80
FF80
ENDCHAR
STARTCHAR Igrave.uni00CC
ENCODING 204
SWIDTH 578 0
DWIDTH 11 0
BBX 8 18 2 0
BITMAP
6000
3000
0800
0000
FF00
FF00
1800
1800
1800
1800
1800
1800
1800
1800
1800
1800
FF00
FF00
ENDCHAR
STARTCHAR Iacute.uni00CD
ENCODING 205
SWIDTH 578 0
DWIDTH 11 0
BBX 8 18 2 0
BITMAP
0C00
1800
2000
0000
FF00
FF00
1800
1800
1800
1800
1800
1800
1800
1800
1800
1800
FF00
FF00
ENDCHAR
STARTCHAR Icircumflex.uni00CE
ENCODING 206
SWIDTH 578 0
DWIDTH 11 0
BBX 8 18 2 0
BITMAP
1000
3800
6C00
0000
FF00
FF00
1800
1800
1800
1800
1800
1800
1800
1800
1800
1800
FF00
FF00
ENDCHAR
STARTCHAR Idieresis.uni00CF
ENCODING 207
SWIDTH 578 0
DWIDTH 11 0
BBX 8 17 2 0
BITMAP
6600
6600
0000
FF00
FF00
1800
1800
1800
1800
1800
1800
1800
1800
1800
1800
FF00
FF00
ENDCHAR
STARTCHAR Eth.uni00D0
ENCODING 208
SWIDTH 578 0
DWIDTH 11 0
BBX 10 14 0 0
BITMAP
7E00
7F00
6380
6180
60C0
60C0
F8C0
F8C0
60C0
60C0
6180
6380
7F00
7E00
ENDCHAR
STARTCHAR Ntilde.uni00D1
ENCODING 209
SWIDTH 578 0
DWIDTH 11 0
BBX 9 17 1 0
BITMAP
1900
2600
0000
E180
E180
E180
F180
D180
D980
C980
C980
CD80
C580
C780
C380
C380
C380
ENDCHAR
STARTCHAR Ograve.uni00D2
ENCODING 210
SWIDTH 578 0
DWIDTH 11 0
BBX 9 18 1 0
BITMAP
3000
1800
0400
0000
3E00
7F00
6300
C180
C180
C180
C180
C180
C180
C180
C180
6300
7F00
3E00
ENDCHAR
STARTCHAR Oacute.uni00D3
ENCODING 211
SWIDTH 578 0
DWIDTH 11 0
BBX 9 18 1 0
BITMAP
0600
0C00
1000
0000
3E00
7F00
6300
C180
C180
C180
C180
C180
C180
C180
C180
6300
7F00
3E00
ENDCHAR
STARTCHAR Ocircumflex.uni00D4
ENCODING 212
SWIDTH 578 0
DWIDTH 11 0
BBX 9 18 1 0
BITMAP
0800
1C00
3600
0000
3E00
7F00
6300
C180
C180
C180
C180
C180
C180
C180
C180
6300
7F00
3E00
ENDCHAR
STARTCHAR Otilde.uni00D5
ENCODING 213
SWIDTH 578 0
DWIDTH 11 0
BBX 9 17 1 0
BITMAP
1900
2600
0000
3E00
7F00
6300
C180
C180
C180
C180
C180
C180
C180
C180
6300
7F00
3E00
ENDCHAR
STARTCHAR Odieresis.uni00D6
ENCODING 214
SWIDTH 578 0
DWIDTH 11 0
BBX 9 17 1 0
BITMAP
6300
6300
0000
3E00
7F00
6300
C180
C180
C180
C180
C180
C180
C180
C180
6300
7F00
3E00
ENDCHAR
STARTCHAR multiply.uni00D7
ENCODING 215
SWIDTH 578 0
DWIDTH 11 0
BBX 10 10 0 0
BITMAP
4080
E1C0
7380
3F00
1E00
1E00
3F00
7380
E1C0
4080
ENDCHAR
STARTCHAR Oslash.uni00D8
ENCODING 216
SWIDTH 578 0
DWIDTH 11 0
BBX 11 14 0 0
BITMAP
1F20
3FC0
3180
60C0
61C0
62C0
64C0
64C0
68C0
70C0
60C0
3180
7F80
9F00
ENDCHAR
STARTCHAR Ugrave.uni00D9
ENCODING 217
SWIDTH 578 0
DWIDTH 11 0
BBX 9 18 1 0
BITMAP
3000
1800
0400
0000
C180
C180
C180
C180
C180
C180
C180
C180
C180
C180
C180
6300
7F00
3E00
ENDCHAR
STARTCHAR Uacute.uni00DA
ENCODING 218
SWIDTH 578 0
DWIDTH 11 0
BBX 9 18 1 0
BITMAP
0600
0C00
1000
0000
C180
C180
C180
C180
C180
C180
C180
C180
C180
C180
C180
6300
7F00
3E00
ENDCHAR
STARTCHAR Ucircumflex.uni00DB
ENCODING 219
SWIDTH 578 0
DWIDTH 11 0
BBX 9 18 1 0
BITMAP
0800
1C00
3600
0000
C180
C180
C180
C180
C180
C180
C180
C180
C180
C180
C180
6300
7F00
3E00
ENDCHAR
STARTCHAR Udieresis.uni00DC
ENCODING 220
SWIDTH 578 0
DWIDTH 11 0
BBX 9 17 1 0
BITMAP
6300
6300
0000
C180
C180
C180
C180
C180
C180
C180
C180
C180
C180
C180
6300
7F00
3E00
ENDCHAR
STARTCHAR Yacute.uni00DD
ENCODING 221
SWIDTH 578 0
DWIDTH 11 0
BBX 10 18 1 0
BITMAP
0300
0600
0800
0000
E1C0
6180
7380
3300
3F00
1E00
1E00
0C00
0C00
0C00
0C00
0C00
0C00
0C00
ENDCHAR
STARTCHAR Thorn.uni00DE
ENCODING 222
SWIDTH 578 0
DWIDTH 11 0
BBX 9 14 1 0
BITMAP
C000
C000
C000
FE00
FF00
C380
C180
C180
C380
FF00
FE00
C000
C000
C000
ENDCHAR
STARTCHAR germandbls.uni00DF
ENCODING 223
SWIDTH 578 0
DWIDTH 11 0
BBX 9 14 1 0
BITMAP
3C00
7E00
C300
C300
C600
CC00
CC00
C600
C300
C180
C180
D180
DF80
CF00
ENDCHAR
STARTCHAR agrave.uni00E0
ENCODING 224
SWIDTH 578 0
DWIDTH 11 0
BBX 9 15 1 0
BITMAP
7000
3000
1800
0800
0000
3E00
7F00
4180
0180
3F80
FF80
C180
C380
FF80
3D80
ENDCHAR
STARTCHAR aacute.uni00E1
ENCODING 225
SWIDTH 578 0
DWIDTH 11 0
BBX 9 15 1 0
BITMAP
0E00
0C00
1800
1000
0000
3E00
7F00
4180
0180
3F80
FF80
C180
C380
FF80
3D80
ENDCHAR
STARTCHAR acircumflex.uni00E2
ENCODING 226
SWIDTH 578 0
DWIDTH 11 0
BBX 9 15 1 0
BITMAP
0C00
1E00
3300
0000
0000
3E00
7F00
4180
0180
3F80
FF80
C180
C380
FF80
3D80
ENDCHAR
STARTCHAR atilde.uni00E3
ENCODING 227
SWIDTH 578 0
DWIDTH 11 0
BBX 9 16 1 0
BITMAP
1900
3F00
2600
0000
0000
0000
3E00
7F00
4180
0180
3F80
FF80
C180
C380
FF80
3D80
ENDCHAR
STARTCHAR adieresis.uni00E4
ENCODING 228
SWIDTH 578 0
DWIDTH 11 0
BBX 9 14 1 0
BITMAP
3300
3300
0000
0000
3E00
7F00
4180
0180
3F80
FF80
C180
C380
FF80
3D80
ENDCHAR
STARTCHAR aring.uni00E5
ENCODING 229
SWIDTH 578 0
DWIDTH 11 0
BBX 9 17 1 0
BITMAP
1C00
2200
2200
2200
1C00
0000
0000
3E00
7F00
4180
0180
3F80
FF80
C180
C380
FF80
3D80
ENDCHAR
STARTCHAR ae.uni00E6
ENCODING 230
SWIDTH 578 0
DWIDTH 11 0
BBX 9 10 1 0
BITMAP
6700
7F80
1980
1980
7F80
FF80
D800
D880
FF80
6700
ENDCHAR
STARTCHAR ccedilla.uni00E7
ENCODING 231
SWIDTH 578 0
DWIDTH 11 0
BBX 8 14 1 -4
BITMAP
1E00
7F00
6100
C000
C000
C000
C000
6100
7F00
1E00
0800
0C00
0C00
3800
ENDCHAR
STARTCHAR egrave.uni00E8
ENCODING 232
SWIDTH 578 0
DWIDTH 11 0
BBX 9 15 1 0
BITMAP
7000
3000
1800
0800
0000
3E00
7F00
6380
C180
FF80
FF80
C000
6080
7F80
1F00
ENDCHAR
STARTCHAR eacute.uni00E9
ENCODING 233
SWIDTH 578 0
DWIDTH 11 0
BBX 9 15 1 0
BITMAP
0E00
0C00
1800
1000
0000
3E00
7F00
6380
C180
FF80
FF80
C000
6080
7F80
1F00
ENDCHAR
STARTCHAR ecircumflex.uni00EA
ENCODING 234
SWIDTH 578 0
DWIDTH 11 0
BBX 9 15 1 0
BITMAP
0C00
1E00
3300
0000
0000
3E00
7F00
6380
C180
FF80
FF80
C000
6080
7F80
1F00
ENDCHAR
STARTCHAR edieresis.uni00EB
ENCODING 235
SWIDTH 578 0
DWIDTH 11 0
BBX 9 14 1 0
BITMAP
3300
3300
0000
0000
3E00
7F00
6380
C180
FF80
FF80
C000
6080
7F80
1F00
ENDCHAR
STARTCHAR igrave.uni00EC
ENCODING 236
SWIDTH 578 0
DWIDTH 11 0
BBX 8 15 2 0
BITMAP
E000
6000
3000
1000
0000
F800
F800
1800
1800
1800
1800
1800
1800
FF00
FF00
ENDCHAR
STARTCHAR iacute.uni00ED
ENCODING 237
SWIDTH 578 0
DWIDTH 11 0
BBX 8 15 2 0
BITMAP
1C00
1800
3000
2000
0000
F800
F800
1800
1800
1800
1800
1800
1800
FF00
FF00
ENDCHAR
STARTCHAR icircumflex.uni00EE
ENCODING 238
SWIDTH 578 0
DWIDTH 11 0
BBX 8 15 2 0
BITMAP
1800
3C00
6600
0000
0000
F800
F800
1800
1800
1800
1800
1800
1800
FF00
FF00
ENDCHAR
STARTCHAR idieresis.uni00EF
ENCODING 239
SWIDTH 578 0
DWIDTH 11 0
BBX 8 14 2 0
BITMAP
6600
6600
0000
0000
F800
F800
1800
1800
1800
1800
1800
1800
FF00
FF00
ENDCHAR
STARTCHAR eth.uni00F0
ENCODING 240
SWIDTH 578 0
DWIDTH 11 0
BBX 9 14 1 0
BITMAP
7000
3E00
7C00
0E00
3F00
7F00
E380
C180
C180
C180
C180
E380
7F00
3E00
ENDCHAR
STARTCHAR ntilde.uni00F1
ENCODING 241
SWIDTH 578 0
DWIDTH 11 0
BBX 9 16 1 0
BITMAP
1900
3F00
2600
0000
0000
0000
CE00
FF00
E380
C180
C180
C180
C180
C180
C180
C180
ENDCHAR
STARTCHAR ograve.uni00F2
ENCODING 242
SWIDTH 578 0
DWIDTH 11 0
BBX 9 15 1 0
BITMAP
7000
3000
1800
0800
0000
3E00
7F00
E380
C180
C180
C180
C180
E380
7F00
3E00
ENDCHAR
STARTCHAR oacute.uni00F3
ENCODING 243
SWIDTH 578 0
DWIDTH 11 0
BBX 9 15 1 0
BITMAP
0E00
0C00
1800
1000
0000
3E00
7F00
E380
C180
C180
C180
C180
E380
7F00
3E00
ENDCHAR
STARTCHAR ocircumflex.uni00F4
ENCODING 244
SWIDTH 578 0
DWIDTH 11 0
BBX 9 15 1 0
BITMAP
0C00
1E00
3300
0000
0000
3E00
7F00
E380
C180
C180
C180
C180
E380
7F00
3E00
ENDCHAR
STARTCHAR otilde.uni00F5
ENCODING 245
SWIDTH 578 0
DWIDTH 11 0
BBX 9 16 1 0
BITMAP
1900
3F00
2600
0000
0000
0000
3E00
7F00
E380
C180
C180
C180
C180
E380
7F00
3E00
ENDCHAR
STARTCHAR odieresis.uni00F6
ENCODING 246
SWIDTH 578 0
DWIDTH 11 0
BBX 9 14 1 0
BITMAP
6300
6300
0000
0000
3E00
7F00
E380
C180
C180
C180
C180
E380
7F00
3E00
ENDCHAR
STARTCHAR divide.uni00F7
ENCODING 247
SWIDTH 578 0
DWIDTH 11 0
BBX 10 10 0 1
BITMAP
0C00
0C00
0000
0000
FFC0
FFC0
0000
0000
0C00
0C00
ENDCHAR
STARTCHAR oslash.uni00F8
ENCODING 248
SWIDTH 578 0
DWIDTH 11 0
BBX 9 10 1 0
BITMAP
3C80
7F80
E300
C780
CD80
D980
F180
6380
FF00
9E00
ENDCHAR
STARTCHAR ugrave.uni00F9
ENCODING 249
SWIDTH 578 0
DWIDTH 11 0
BBX 9 15 1 0
BITMAP
7000
3000
1800
0800
0000
C180
C180
C180
C180
C180
C180
C180
E380
7F80
3980
ENDCHAR
STARTCHAR uacute.uni00FA
ENCODING 250
SWIDTH 578 0
DWIDTH 11 0
BBX 9 15 1 0
BITMAP
0E00
0C00
1800
1000
0000
C180
C180
C180
C180
C180
C180
C180
E380
7F80
3980
ENDCHAR
STARTCHAR x-hat.uni0302
ENCODING 770
SWIDTH 578 0
DWIDTH 11 0
BBX 9 14 1 0
BITMAP
1C00
7700
E380
0000
E380
6300
3600
3E00
1C00
1C00
3E00
3600
6300
E380
ENDCHAR
STARTCHAR x-bar.uni0304
ENCODING 772
SWIDTH 578 0
DWIDTH 11 0
BBX 9 14 1 0
BITMAP
7F00
7F00
0000
0000
E380
6300
3600
3E00
1C00
1C00
3E00
3600
6300
E380
ENDCHAR
STARTCHAR y-hat.uni0177
ENCODING 375
SWIDTH 578 0
DWIDTH 11 0
BBX 9 18 1 -4
BITMAP
1C00
7700
E380
0000
C180
6300
6300
7300
3600
3600
1E00
1C00
0C00
1C00
1800
1800
7800
7000
ENDCHAR
STARTCHAR thorn.uni00FE
ENCODING 254
SWIDTH 578 0
DWIDTH 11 0
BBX 9 18 1 -4
BITMAP
C000
C000
C000
C000
DE00
FF00
E380
C180
C180
C180
C180
E380
FF00
DE00
C000
C000
C000
C000
ENDCHAR
STARTCHAR y-bar.uni0233
ENCODING 563
SWIDTH 578 0
DWIDTH 11 0
BBX 9 18 1 -4
BITMAP
7F00
7F00
0000
0000
C180
6300
6300
7300
3600
3600
1E00
1C00
0C00
1C00
1800
1800
7800
7000
ENDCHAR
STARTCHAR Cacute.uni0106
ENCODING 262
SWIDTH 578 0
DWIDTH 11 0
BBX 9 18 1 0
BITMAP
0300
0600
0800
0000
1F00
3F80
7080
6000
C000
C000
C000
C000
C000
C000
6000
7080
3F80
1F00
ENDCHAR
STARTCHAR cacute.uni0107
ENCODING 263
SWIDTH 578 0
DWIDTH 11 0
BBX 8 15 1 0
BITMAP
0E00
0C00
1800
1000
0000
1E00
7F00
6100
C000
C000
C000
C000
6100
7F00
1E00
ENDCHAR
STARTCHAR Ccaron.uni010C
ENCODING 268
SWIDTH 578 0
DWIDTH 11 0
BBX 9 17 1 0
BITMAP
1B00
0E00
0000
1F00
3F80
7080
6000
C000
C000
C000
C000
C000
C000
6000
7080
3F80
1F00
ENDCHAR
STARTCHAR ccaron.uni010D
ENCODING 269
SWIDTH 578 0
DWIDTH 11 0
BBX 9 15 1 0
BITMAP
1980
0900
0F00
0600
0000
1E00
7F00
6100
C000
C000
C000
C000
6100
7F00
1E00
ENDCHAR
STARTCHAR dcroat.uni0111
ENCODING 273
SWIDTH 578 0
DWIDTH 11 0
BBX 10 14 1 0
BITMAP
0180
0180
0FC0
0180
3D80
7F80
E380
C180
C180
C180
C180
E380
7F80
3D80
ENDCHAR
STARTCHAR Gbreve.uni011E
ENCODING 286
SWIDTH 578 0
DWIDTH 11 0
BBX 9 17 1 0
BITMAP
2100
1E00
0000
1F00
3F80
7080
6000
C000
C000
C780
C780
C180
C180
6180
6180
3F80
1E00
ENDCHAR
STARTCHAR gbreve.uni011F
ENCODING 287
SWIDTH 578 0
DWIDTH 11 0
BBX 9 19 1 -4
BITMAP
2100
1E00
0000
0000
0000
3D80
7F80
E380
C180
C180
C180
C180
E380
7F80
3D80
0180
4380
7F00
3E00
ENDCHAR
STARTCHAR Idotaccent.uni0130
ENCODING 304
SWIDTH 578 0
DWIDTH 11 0
BBX 8 17 2 0
BITMAP
1800
1800
0000
FF00
FF00
1800
1800
1800
1800
1800
1800
1800
1800
1800
1800
FF00
FF00
ENDCHAR
STARTCHAR dotlessi.uni0131
ENCODING 305
SWIDTH 578 0
DWIDTH 11 0
BBX 8 10 2 0
BITMAP
F800
F800
1800
1800
1800
1800
1800
1800
FF00
FF00
ENDCHAR
STARTCHAR Lslash.uni0141
ENCODING 321
SWIDTH 578 0
DWIDTH 11 0
BBX 10 14 0 0
BITMAP
6000
6000
6000
6000
6300
6C00
7000
6000
E000
6000
6000
6000
7FC0
7FC0
ENDCHAR
STARTCHAR lslash.uni0142
ENCODING 322
SWIDTH 578 0
DWIDTH 11 0
BBX 10 14 0 0
BITMAP
7C00
7C00
0C00
0C00
0CC0
0F00
0C00
3C00
CC00
0C00
0C00
0C00
0780
0780
ENDCHAR
STARTCHAR OE.uni0152
ENCODING 338
SWIDTH 578 0
DWIDTH 11 0
BBX 9 14 1 0
BITMAP
3F80
7F80
EC00
CC00
CC00
CC00
CF80
CF80
CC00
CC00
CC00
EC00
7F80
3F80
ENDCHAR
STARTCHAR oe.uni0153
ENCODING 339
SWIDTH 578 0
DWIDTH 11 0
BBX 9 10 1 0
BITMAP
6700
FF80
D980
D980
DF80
DF80
D800
D880
FF80
6700
ENDCHAR
STARTCHAR Scedilla.uni015E
ENCODING 350
SWIDTH 578 0
DWIDTH 11 0
BBX 9 18 1 -4
BITMAP
3E00
7F00
E100
C000
C000
F000
7E00
1F00
0380
0180
0180
8380
FF00
7E00
0800
0C00
0C00
3800
ENDCHAR
STARTCHAR scedilla.uni015F
ENCODING 351
SWIDTH 578 0
DWIDTH 11 0
BBX 9 14 1 -4
BITMAP
3F00
FF80
C080
F800
7F00
0780
0180
8180
FF80
7E00
0800
0C00
0C00
3800
ENDCHAR
STARTCHAR Scaron.uni0160
ENCODING 352
SWIDTH 578 0
DWIDTH 11 0
BBX 9 18 1 0
BITMAP
3600
1C00
0800
0000
3E00
7F00
E100
C000
C000
F000
7E00
1F00
0380
0180
0180
8380
FF00
7E00
ENDCHAR
STARTCHAR scaron.uni0161
ENCODING 353
SWIDTH 578 0
DWIDTH 11 0
BBX 9 15 1 0
BITMAP
3300
1E00
0C00
0000
0000
3F00
FF80
C080
F800
7F00
0780
0180
8180
FF80
7E00
ENDCHAR
STARTCHAR Ydieresis.uni0178
ENCODING 376
SWIDTH 578 0
DWIDTH 11 0
BBX 10 17 1 0
BITMAP
3300
3300
0000
E1C0
6180
7380
3300
3F00
1E00
1E00
0C00
0C00
0C00
0C00
0C00
0C00
0C00
ENDCHAR
STARTCHAR Zcaron.uni017D
ENCODING 381
SWIDTH 578 0
DWIDTH 11 0
BBX 9 18 1 0
BITMAP
3600
1C00
0800
0000
FF80
FF80
0300
0700
0600
0E00
0C00
1800
3800
3000
7000
6000
FF80
FF80
ENDCHAR
STARTCHAR zcaron.uni017E
ENCODING 382
SWIDTH 578 0
DWIDTH 11 0
BBX 9 15 1 0
BITMAP
3300
1E00
0C00
0000
0000
FF80
FF80
0300
0600
0C00
1800
3000
6000
FF80
FF80
ENDCHAR
STARTCHAR florin.uni0192
ENCODING 402
SWIDTH 578 0
DWIDTH 11 0
BBX 11 18 0 -4
BITMAP
00E0
01E0
0300
0300
0300
0600
1FC0
1FC0
0600
0600
0600
0E00
0C00
0C00
0C00
1C00
F800
F000
ENDCHAR
STARTCHAR circumflex.uni02C6
ENCODING 710
SWIDTH 578 0
DWIDTH 11 0
BBX 6 3 3 12
BITMAP
3000
7800
CC00
ENDCHAR
STARTCHAR caron.uni02C7
ENCODING 711
SWIDTH 578 0
DWIDTH 11 0
BBX 6 3 3 12
BITMAP
CC00
7800
3000
ENDCHAR
STARTCHAR breve.uni02D8
ENCODING 728
SWIDTH 578 0
DWIDTH 11 0
BBX 6 2 3 13
BITMAP
8400
7800
ENDCHAR
STARTCHAR dotaccent.uni02D9
ENCODING 729
SWIDTH 578 0
DWIDTH 11 0
BBX 2 2 5 12
BITMAP
C000
C000
ENDCHAR
STARTCHAR ring.uni02DA
ENCODING 730
SWIDTH 578 0
DWIDTH 11 0
BBX 5 5 3 12
BITMAP
7000
8800
8800
8800
7000
ENDCHAR
STARTCHAR ogonek.uni02DB
ENCODING 731
SWIDTH 578 0
DWIDTH 11 0
BBX 4 4 4 -4
BITMAP
4000
C000
C000
7000
ENDCHAR
STARTCHAR tilde.uni02DC
ENCODING 732
SWIDTH 578 0
DWIDTH 11 0
BBX 6 2 3 13
BITMAP
6400
9800
ENDCHAR
STARTCHAR hungarumlaut.uni02DD
ENCODING 733
SWIDTH 578 0
DWIDTH 11 0
BBX 6 4 3 11
BITMAP
6C00
6C00
4800
9000
ENDCHAR
STARTCHAR Sigma.uni03A3
ENCODING 931
SWIDTH 578 0
DWIDTH 11 0
BBX 9 14 1 0
BITMAP
FF00
FF00
C000
6000
3000
1800
0C00
0C00
1800
3000
6000
C000
FF80
FF80
ENDCHAR
STARTCHAR Omega.uni03A9
ENCODING 937
SWIDTH 578 0
DWIDTH 11 0
BBX 9 13 1 0
BITMAP
3E00
7F00
6300
C180
C180
C180
C180
C180
C180
6300
2200
F780
F780
ENDCHAR
STARTCHAR mu.uni03BC
ENCODING 956
SWIDTH 578 0
DWIDTH 11 0
BBX 10 14 1 -4
BITMAP
C180
C180
C180
C180
C180
C180
C180
E380
FFC0
DCC0
C000
C000
C000
C000
ENDCHAR
STARTCHAR pi.uni03C0
ENCODING 960
SWIDTH 578 0
DWIDTH 11 0
BBX 10 10 1 0
BITMAP
FF80
6300
6300
6300
6300
6300
6300
6300
6300
61C0
ENDCHAR
STARTCHAR exponent.uni1D07
ENCODING 7431
SWIDTH 578 0
DWIDTH 11 0
BBX 7 11 2 0
BITMAP
FE00
C000
C000
C000
C000
FC00
C000
C000
C000
C000
FE00
ENDCHAR
STARTCHAR endash.uni2013
ENCODING 8211
SWIDTH 578 0
DWIDTH 11 0
BBX 7 2 2 4
BITMAP
FE00
FE00
ENDCHAR
STARTCHAR emdash.uni2014
ENCODING 8212
SWIDTH 578 0
DWIDTH 11 0
BBX 9 2 1 4
BITMAP
FF80
FF80
ENDCHAR
STARTCHAR quoteleft.uni2018
ENCODING 8216
SWIDTH 578 0
DWIDTH 11 0
BBX 3 5 4 9
BITMAP
2000
6000
C000
C000
C000
ENDCHAR
STARTCHAR quoteright.uni2019
ENCODING 8217
SWIDTH 578 0
DWIDTH 11 0
BBX 3 5 4 9
BITMAP
6000
6000
6000
C000
8000
ENDCHAR
STARTCHAR quotesinglbase.uni201A
ENCODING 8218
SWIDTH 578 0
DWIDTH 11 0
BBX 3 5 3 -2
BITMAP
6000
6000
6000
C000
8000
ENDCHAR
STARTCHAR quotedblleft.uni201C
ENCODING 8220
SWIDTH 578 0
DWIDTH 11 0
BBX 7 5 2 9
BITMAP
2200
6600
CC00
CC00
CC00
ENDCHAR
STARTCHAR quotedblright.uni201D
ENCODING 8221
SWIDTH 578 0
DWIDTH 11 0
BBX 7 5 2 9
BITMAP
6600
6600
6600
CC00
8800
ENDCHAR
STARTCHAR quotedblbase.uni201E
ENCODING 8222
SWIDTH 578 0
DWIDTH 11 0
BBX 7 5 2 -2
BITMAP
6600
6600
6600
CC00
8800
ENDCHAR
STARTCHAR dagger.uni2020
ENCODING 8224
SWIDTH 578 0
DWIDTH 11 0
BBX 8 16 2 -2
BITMAP
1800
1800
1800
1800
FF00
FF00
1800
1800
1800
1800
1800
1800
1800
1800
1800
1800
ENDCHAR
STARTCHAR daggerdbl.uni2021
ENCODING 8225
SWIDTH 578 0
DWIDTH 11 0
BBX 8 16 2 -2
BITMAP
1800
1800
1800
1800
FF00
FF00
1800
1800
1800
1800
FF00
FF00
1800
1800
1800
1800
ENDCHAR
STARTCHAR bullet.uni2022
ENCODING 8226
SWIDTH 578 0
DWIDTH 11 0
BBX 5 6 3 4
BITMAP
7000
F800
F800
F800
F800
7000
ENDCHAR
STARTCHAR ellipsis.uni2026
ENCODING 8230
SWIDTH 578 0
DWIDTH 11 0
BBX 10 3 1 0
BITMAP
CCC0
CCC0
CCC0
ENDCHAR
STARTCHAR perthousand.uni2030
ENCODING 8240
SWIDTH 578 0
DWIDTH 11 0
BBX 11 14 0 0
BITMAP
7000
8800
8800
8840
7180
0600
1800
6000
8000
71C0
8A20
8A20
8A20
71C0
ENDCHAR
STARTCHAR guilsinglleft.uni2039
ENCODING 8249
SWIDTH 578 0
DWIDTH 11 0
BBX 5 7 3 2
BITMAP
1800
3000
6000
C000
6000
3000
1800
ENDCHAR
STARTCHAR guilsinglright.uni203A
ENCODING 8250
SWIDTH 578 0
DWIDTH 11 0
BBX 5 7 3 2
BITMAP
C000
6000
3000
1800
3000
6000
C000
ENDCHAR
STARTCHAR Euro.uni20AC
ENCODING 8364
SWIDTH 578 0
DWIDTH 11 0
BBX 9 14 1 0
BITMAP
0F00
1F80
3080
3000
6000
FE00
6000
6000
FE00
6000
7000
3080
1F80
0F00
ENDCHAR
STARTCHAR trademark.uni2122
ENCODING 8482
SWIDTH 578 0
DWIDTH 11 0
BBX 9 5 0 9
BITMAP
E880
4D80
4A80
4880
4880
ENDCHAR
STARTCHAR arrowleft.uni2190
ENCODING 8592
SWIDTH 578 0
DWIDTH 11 0
BBX 11 8 0 1
BITMAP
1800
3000
7000
FFE0
FFE0
7000
3000
1800
ENDCHAR
STARTCHAR arrowup.uni2191
ENCODING 8593
SWIDTH 578 0
DWIDTH 11 0
BBX 8 18 2 -4
BITMAP
1800
3C00
7E00
FF00
9900
1800
1800
1800
1800
1800
1800
1800
1800
1800
1800
1800
1800
1800
ENDCHAR
STARTCHAR arrowright.uni2192
ENCODING 8594
SWIDTH 578 0
DWIDTH 11 0
BBX 11 8 0 1
BITMAP
0300
0180
01C0
FFE0
FFE0
01C0
0180
0300
ENDCHAR
STARTCHAR arrowdown.uni2193
ENCODING 8595
SWIDTH 578 0
DWIDTH 11 0
BBX 8 18 2 -4
BITMAP
1800
1800
1800
1800
1800
1800
1800
1800
1800
1800
1800
1800
1800
9900
FF00
7E00
3C00
1800
ENDCHAR
STARTCHAR carriagereturn.uni21B5
ENCODING 8629
SWIDTH 578 0
DWIDTH 11 0
BBX 10 13 0 0
BITMAP
00C0
00C0
00C0
00C0
00C0
18C0
30C0
70C0
FFC0
FF80
7000
3000
1800
ENDCHAR
STARTCHAR partialdiff.uni2202
ENCODING 8706
SWIDTH 578 0
DWIDTH 11 0
BBX 8 12 2 0
BITMAP
1C00
3200
0100
0100
3900
6700
C300
C300
C300
C200
4600
3800
ENDCHAR
STARTCHAR Delta.uni2206
ENCODING 8710
SWIDTH 578 0
DWIDTH 11 0
BBX 11 13 0 0
BITMAP
0E00
0E00
0E00
1B00
1B00
1B00
3180
3180
3180
60C0
60C0
7FC0
FFE0
ENDCHAR
STARTCHAR Pi.uni03A0
ENCODING 928
SWIDTH 578 0
DWIDTH 11 0
BBX 9 14 1 0
BITMAP
FF80
FF80
C180
C180
C180
C180
C180
C180
C180
C180
C180
C180
C180
C180
ENDCHAR
STARTCHAR summation.uni2211
ENCODING 8721
SWIDTH 578 0
DWIDTH 11 0
BBX 8 18 1 -4
BITMAP
FF00
4000
6000
2000
3000
1000
1800
0800
0C00
0C00
0800
1800
1000
3000
2000
6000
4000
FF00
ENDCHAR
STARTCHAR minus.uni2212
ENCODING 8722
SWIDTH 578 0
DWIDTH 11 0
BBX 9 2 1 5
BITMAP
FF80
FF80
ENDCHAR
STARTCHAR slashdiv.uni2215
ENCODING 8725
SWIDTH 578 0
DWIDTH 11 0
BBX 9 16 1 -2
BITMAP
0180
0180
0300
0300
0600
0600
0C00
0C00
1800
1800
3000
3000
6000
6000
C000
C000
ENDCHAR
STARTCHAR bulletop.uni2219
ENCODING 8729
SWIDTH 578 0
DWIDTH 11 0
BBX 2 3 4 5
BITMAP
C000
C000
C000
ENDCHAR
STARTCHAR radical.uni221A
ENCODING 8730
SWIDTH 578 0
DWIDTH 11 0
BBX 10 15 1 0
BITMAP
00C0
0080
0080
0180
0100
0100
0300
E200
2200
3600
1400
1400
1C00
0800
0800
ENDCHAR
STARTCHAR infinity.uni221E
ENCODING 8734
SWIDTH 578 0
DWIDTH 11 0
BBX 10 7 0 2
BITMAP
7380
DEC0
8C40
8C40
8C40
DEC0
7380
ENDCHAR
STARTCHAR mesangle.uni2221
ENCODING 8737
SWIDTH 578 0
DWIDTH 11 0
BBX 11 13 0 0
BITMAP
0300
0300
0600
0600
0C00
0C00
1C00
1E00
3300
3100
6180
6180
FFE0
ENDCHAR
STARTCHAR integral.uni222B
ENCODING 8747
SWIDTH 578 0
DWIDTH 11 0
BBX 8 18 2 -4
BITMAP
0700
0F00
0800
1800
1800
1800
1800
1800
1800
1800
1800
1800
1800
1800
1800
1000
F000
E000
ENDCHAR
STARTCHAR approxequal.uni2248
ENCODING 8776
SWIDTH 578 0
DWIDTH 11 0
BBX 9 7 1 3
BITMAP
7880
FF80
8700
0000
7880
FF80
8700
ENDCHAR
STARTCHAR notequal.uni2260
ENCODING 8800
SWIDTH 578 0
DWIDTH 11 0
BBX 9 12 1 0
BITMAP
0100
0180
0300
FF80
FF80
0C00
1800
FF80
FF80
6000
C000
4000
ENDCHAR
STARTCHAR lessequal.uni2264
ENCODING 8804
SWIDTH 578 0
DWIDTH 11 0
BBX 9 10 1 0
BITMAP
0080
0780
3C00
E000
E000
3C00
0780
0080
FF80
FF80
ENDCHAR
STARTCHAR greaterequal.uni2265
ENCODING 8805
SWIDTH 578 0
DWIDTH 11 0
BBX 9 10 1 0
BITMAP
8000
F000
1E00
0380
0380
1E00
F000
8000
FF80
FF80
ENDCHAR
STARTCHAR lf.uni240A
ENCODING 9226
SWIDTH 578 0
DWIDTH 11 0
BBX 10 15 0 -1
BITMAP
8000
8000
8000
8000
8000
8000
F000
07C0
0400
0400
07C0
0400
0400
0400
0400
ENDCHAR
STARTCHAR esc.uni241B
ENCODING 9243
SWIDTH 578 0
DWIDTH 11 0
BBX 10 18 0 -3
BITMAP
E000
8000
8000
E000
8000
8600
E800
0800
0400
0200
0200
0CC0
0100
0100
0100
0100
0100
00C0
ENDCHAR
STARTCHAR bdlvr.uni251C
ENCODING 9500
SWIDTH 578 0
DWIDTH 11 0
BBX 6 18 3 -3
BITMAP
C000
C000
C000
C000
C000
C000
C000
C000
FC00
FC00
C000
C000
C000
C000
C000
C000
C000
C000
ENDCHAR
STARTCHAR shade.uni2592
ENCODING 9618
SWIDTH 578 0
DWIDTH 11 0
BBX 11 19 0 -4
BITMAP
AAA0
0000
5540
0000
AAA0
0000
5540
0000
AAA0
0000
5540
0000
AAA0
0000
5540
0000
AAA0
0000
5540
ENDCHAR
STARTCHAR filledbox.uni25A0
ENCODING 9632
SWIDTH 578 0
DWIDTH 11 0
BBX 7 8 2 2
BITMAP
FE00
FE00
FE00
FE00
FE00
FE00
FE00
FE00
ENDCHAR
STARTCHAR triagup.uni25B2
ENCODING 9650
SWIDTH 578 0
DWIDTH 11 0
BBX 11 11 0 0
BITMAP
0400
0400
0E00
0E00
1F00
1F00
3F80
3F80
7FC0
7FC0
FFE0
ENDCHAR
STARTCHAR triagright.uni25B6
ENCODING 9654
SWIDTH 578 0
DWIDTH 11 0
BBX 11 11 0 1
BITMAP
8000
E000
F800
FE00
FF80
FFE0
FF80
FE00
F800
E000
8000
ENDCHAR
STARTCHAR triagdn.uni25BC
ENCODING 9660
SWIDTH 578 0
DWIDTH 11 0
BBX 11 11 0 0
BITMAP
FFE0
7FC0
7FC0
3F80
3F80
1F00
1F00
0E00
0E00
0400
0400
ENDCHAR
STARTCHAR lozenge.uni25CA
ENCODING 9674
SWIDTH 578 0
DWIDTH 11 0
BBX 9 18 1 -3
BITMAP
0800
0800
1400
1400
2200
2200
4100
4100
8080
8080
4100
4100
2200
2200
1400
1400
0800
0800
ENDCHAR
STARTCHAR fi.uniFB01
ENCODING 64257
SWIDTH 578 0
DWIDTH 11 0
BBX 10 14 0 0
BITMAP
3CC0
7CC0
6000
6000
FFC0
FFC0
60C0
60C0
60C0
60C0
60C0
60C0
60C0
60C0
ENDCHAR
STARTCHAR fl.uniFB02
ENCODING 64258
SWIDTH 578 0
DWIDTH 11 0
BBX 10 14 0 0
BITMAP
3FC0
7FC0
60C0
60C0
FCC0
FCC0
60C0
60C0
60C0
60C0
60C0
60C0
60C0
60C0
ENDCHAR
STARTCHAR uparrtipleft.uni21B0
ENCODING 8624
SWIDTH 763 0
DWIDTH 11 0
BBX 10 14 0 0
BITMAP
1800
3000
7000
FF80
FFC0
70C0
30C0
18C0
00C0
00C0
00C0
00C0
00C0
00C0
ENDCHAR
STARTCHAR uparrtipright.uni21B1
ENCODING 8625
SWIDTH 763 0
DWIDTH 11 0
BBX 10 14 1 0
BITMAP
0600
0300
0380
7FC0
FFC0
C380
C300
C600
C000
C000
C000
C000
C000
C000
ENDCHAR
STARTCHAR xsuperior.uni02E3
ENCODING 739
SWIDTH 763 0
DWIDTH 11 0
BBX 8 8 1 6
BITMAP
E700
6600
3C00
1800
1800
3C00
6600
E700
ENDCHAR
STARTCHAR sigma.uni03C3
ENCODING 963
SWIDTH 763 0
DWIDTH 11 0
BBX 9 10 1 0
BITMAP
3F80
7F80
E600
C300
C300
C300
C300
E700
7E00
3C00
ENDCHAR
STARTCHAR theta.uni03B8
ENCODING 952
SWIDTH 763 0
DWIDTH 11 0
BBX 9 14 1 0
BITMAP
3E00
7F00
6300
C180
C180
C180
FF80
FF80
C180
C180
C180
6300
7F00
3E00
ENDCHAR
STARTCHAR eqminus.uni23BB
ENCODING 9147
SWIDTH 763 0
DWIDTH 11 0
BBX 9 2 1 9
BITMAP
FF80
FF80
ENDCHAR
STARTCHAR boldparleft.uni27EA
ENCODING 10218
SWIDTH 763 0
DWIDTH 11 0
BBX 6 17 3 -3
BITMAP
3C00
3800
7800
7800
7000
F000
F000
F000
F000
F000
F000
F000
7000
7800
7800
3800
3C00
ENDCHAR
STARTCHAR boldparright.uni27EB
ENCODING 10219
SWIDTH 763 0
DWIDTH 11 0
BBX 6 17 2 -3
BITMAP
F000
7000
7800
7800
3800
3C00
3C00
3C00
3C00
3C00
3C00
3C00
3800
7800
7800
7000
F000
ENDCHAR
STARTCHAR block.uni2588
ENCODING 9608
SWIDTH 763 0
DWIDTH 11 0
BBX 11 19 0 -4
BITMAP
FFE0
FFE0
FFE0
FFE0
FFE0
FFE0
FFE0
FFE0
FFE0
FFE0
FFE0
FFE0
FFE0
FFE0
FFE0
FFE0
FFE0
FFE0
FFE0
ENDCHAR
STARTCHAR ucircumflex.uni00FB
ENCODING 251
SWIDTH 578 0
DWIDTH 11 0
BBX 9 15 1 0
BITMAP
1C00
3600
6300
0000
0000
C180
C180
C180
C180
C180
C180
C180
E380
7F80
3980
ENDCHAR
STARTCHAR udieresis.uni00FC
ENCODING 252
SWIDTH 578 0
DWIDTH 11 0
BBX 9 15 1 0
BITMAP
3600
3600
0000
0000
0000
C180
C180
C180
C180
C180
C180
C180
E380
7F80
3980
ENDCHAR
STARTCHAR yacute.uni00FD
ENCODING 253
SWIDTH 578 0
DWIDTH 11 0
BBX 9 19 1 -4
BITMAP
0E00
0C00
1800
1000
0000
C180
6300
6300
7300
3600
3600
1E00
1C00
0C00
1C00
1800
1800
7800
7000
ENDCHAR
STARTCHAR ydieresis.uni00FF
ENCODING 255
SWIDTH 578 0
DWIDTH 11 0
BBX 9 19 1 -4
BITMAP
3600
3600
0000
0000
0000
C180
6300
6300
7300
3600
3600
1E00
1C00
0C00
1C00
1800
1800
7800
7000
ENDCHAR
STARTCHAR triagleft.uni25C0
ENCODING 9664
SWIDTH 578 0
DWIDTH 11 0
BBX 11 11 0 1
BITMAP
0020
00E0
03E0
0FE0
3FE0
FFE0
3FE0
0FE0
03E0
00E0
0020
ENDCHAR
STARTCHAR germandblS.uni1E9E
ENCODING 7838
SWIDTH 578 0
DWIDTH 11 0
BBX 9 14 1 0
BITMAP
3F80
7F00
C300
C600
C600
CC00
CC00
DE00
C300
C180
C180
D180
DF80
CF00
ENDCHAR
STARTCHAR Gamma.uni0393
ENCODING 915
SWIDTH 578 0
DWIDTH 11 0
BBX 9 14 1 0
BITMAP
FF80
FF80
C000
C000
C000
C000
C000
C000
C000
C000
C000
C000
C000
C000
ENDCHAR
ENDFONT
